<svg xmlns="http://www.w3.org/2000/svg" version="1.0" width="300.000000pt" height="169.000000pt" viewBox="0 0 300.000000 169.000000" preserveAspectRatio="xMidYMid meet" transform="matrix(-1, 0, 0, -1, 0, 0)">
<metadata fill="#e76d57">
</metadata>
<g transform="translate(0.000000,169.000000) scale(0.100000,-0.100000)" fill="#e76d57" stroke="none">
<path d="M1467 1655 c-49 -17 -65 -31 -83 -73 -26 -64 -14 -110 45 -166 17 -17 31 -35 31 -42 0 -6 -31 -20 -70 -29 -39 -9 -99 -35 -136 -57 -79 -47 -88 -43 -89 40 0 44 -5 64 -24 89 -56 75 -139 80 -203 12 -33 -34 -38 -46 -38 -86 0 -86 55 -143 139 -143 53 0 81 -7 81 -21 0 -4 -13 -27 -29 -51 -27 -40 -64 -137 -76 -201 -5 -23 -9 -26 -30 -21 -14 3 -40 21 -59 40 -55 55 -123 58 -185 6 -28 -23 -34 -36 -39 -80 -6 -66 10 -104 57 -136 62 -43 136 -28 185 38 12 17 28 26 46 26 24 0 28 -4 33 -39 5 -43 65 -181 78 -181 14 0 21 -41 9 -54 -8 -11 -18 -12 -44 -4 -48 15 -85 2 -128 -43 -33 -34 -38 -46 -38 -86 0 -101 92 -168 184 -133 14 5 39 29 57 52 26 36 30 50 26 85 -3 32 0 46 13 58 16 14 21 13 69 -20 47 -31 162 -75 197 -75 24 0 16 -46 -11 -64 -35 -23 -65 -74 -65 -110 0 -16 11 -49 25 -73 41 -68 102 -90 168 -58 71 35 99 132 57 199 -12 20 -30 41 -41 46 -10 6 -19 21 -19 34 0 20 10 26 77 46 75 22 130 49 166 79 14 11 22 12 35 4 14 -8 16 -22 14 -72 -3 -52 0 -68 20 -96 52 -77 137 -84 201 -16 32 34 37 47 37 86 0 91 -51 145 -136 145 -34 0 -58 5 -68 16 -15 14 -13 19 12 57 36 54 70 133 78 186 6 34 10 41 30 41 15 0 32 -12 46 -31 29 -39 67 -59 112 -59 28 0 45 9 81 43 42 41 45 47 45 96 0 145 -159 191 -247 72 -32 -42 -59 -32 -67 23 -7 44 -53 149 -85 195 -27 38 -15 53 31 39 53 -16 101 -3 137 37 53 61 53 129 0 190 -52 59 -123 59 -186 1 -33 -30 -37 -39 -41 -95 -5 -72 -19 -84 -61 -54 -41 31 -122 70 -161 78 -61 12 -70 16 -70 32 0 9 16 30 37 47 32 28 37 39 40 87 3 42 0 61 -16 86 -37 58 -93 80 -154 58z m115 -54 c28 -25 33 -36 33 -76 0 -40 -5 -51 -33 -76 -71 -64 -183 -17 -182 76 1 94 111 140 182 76z m-502 -166 c34 -17 60 -62 60 -101 0 -34 -70 -104 -104 -104 -58 0 -116 52 -116 103 0 35 31 84 63 100 41 20 61 21 97 2z m983 -45 c41 -45 38 -101 -7 -146 -26 -26 -42 -34 -71 -34 -54 0 -105 53 -105 108 0 101 115 147 183 72z m-536 -20 c2 -24 -1 -30 -17 -30 -17 0 -19 4 -14 28 13 53 25 54 31 2z m92 -55 c89 -21 151 -58 221 -131 82 -85 120 -168 129 -280 12 -151 -26 -260 -127 -366 -184 -193 -475 -195 -664 -5 -184 184 -183 473 1 658 119 118 275 162 440 124z m-439 -106 c0 -21 -24 -19 -49 5 -15 14 -31 23 -36 19 -4 -5 -2 2 4 15 l12 22 34 -26 c19 -15 35 -30 35 -35z m716 30 c3 -6 -3 -20 -14 -32 -17 -17 -24 -18 -36 -8 -14 12 -13 15 7 32 26 22 33 23 43 8z m361 -304 c43 -49 42 -107 -2 -150 -44 -45 -106 -45 -151 0 -18 18 -24 35 -24 70 0 26 5 55 10 65 29 55 126 63 167 15z m-1349 -8 c33 -30 32 -118 -2 -152 -46 -46 -103 -45 -149 1 -76 75 -13 196 93 178 19 -3 45 -15 58 -27z m122 -69 c0 -14 -7 -16 -37 -11 -26 4 -34 3 -29 -5 4 -7 3 -12 -2 -12 -10 0 -22 23 -22 40 0 5 20 8 45 7 35 -2 45 -6 45 -19z m1007 10 c44 -16 42 -25 -7 -30 -36 -3 -40 -1 -40 19 0 27 2 27 47 11z m-861 -359 c19 -21 19 -21 0 -18 -14 3 -21 -3 -25 -19 -6 -21 -8 -22 -26 -8 -20 14 -20 15 4 40 14 14 25 26 26 26 1 0 10 -9 21 -21z m728 -23 c18 -6 18 -8 4 -22 -14 -14 -18 -12 -45 15 -22 21 -27 33 -19 41 7 7 15 5 26 -8 8 -11 24 -22 34 -26z m-796 -31 c45 -49 44 -95 -3 -142 -33 -33 -39 -35 -81 -30 -54 6 -80 27 -95 77 -22 72 44 148 116 135 17 -3 44 -20 63 -40z m944 -4 c28 -25 33 -36 33 -75 0 -38 -5 -51 -32 -77 -68 -68 -176 -23 -176 74 0 36 5 49 33 75 45 43 96 44 142 3z m-522 -122 c0 -32 -3 -39 -20 -39 -17 0 -19 5 -14 33 9 49 13 59 24 52 5 -3 10 -24 10 -46z m64 -82 c31 -42 28 -99 -8 -136 -36 -38 -74 -46 -119 -27 -67 27 -87 111 -41 166 25 29 30 31 87 28 52 -3 63 -7 81 -31z" fill="#e76d57"/>
<path d="M1458 1272 c15 -10 -80 -34 -101 -26 -8 3 -31 -5 -51 -16 -49 -30 -46 -35 5 -10 23 12 43 19 45 17 3 -3 -29 -21 -71 -42 -92 -44 -143 -103 -175 -201 -31 -93 -26 -211 13 -277 15 -26 27 -49 27 -52 0 -3 0 -9 0 -14 0 -5 17 -29 38 -55 64 -79 206 -148 307 -148 127 -1 295 76 346 158 33 53 59 113 59 135 0 10 4 20 9 24 6 3 10 13 9 23 0 9 3 34 7 54 12 61 -19 178 -60 224 -19 21 -35 44 -35 49 0 6 -14 27 -31 48 -31 38 -159 107 -195 106 -10 0 8 -10 42 -23 63 -23 129 -64 120 -74 -3 -3 -14 2 -23 10 -27 24 -95 56 -147 69 -25 6 -43 15 -40 20 3 5 -21 9 -53 9 -33 0 -53 -4 -45 -8z m72 -121 c0 -60 3 -123 6 -140 6 -28 4 -31 -20 -31 l-26 0 0 140 c0 133 1 140 20 140 19 0 20 -7 20 -109z m-70 -41 c0 -66 -3 -120 -6 -120 -12 0 -164 153 -164 165 0 16 109 66 163 74 4 0 7 -53 7 -119z m205 87 c85 -34 85 -34 -7 -125 -97 -96 -95 -97 -97 61 l-1 97 28 -6 c15 -4 50 -16 77 -27z m-344 -123 c46 -47 85 -92 87 -100 2 -8 8 -14 13 -14 6 0 7 5 3 12 -4 7 -3 8 5 4 9 -6 9 -11 0 -22 -6 -8 -15 -14 -19 -14 -4 0 -50 42 -102 94 -74 73 -93 97 -86 110 5 9 10 16 12 16 2 0 41 -39 87 -86z m462 35 c-16 -10 -60 -56 -98 -103 -53 -64 -73 -82 -82 -74 -7 6 -13 16 -13 23 0 7 43 54 95 104 81 78 98 91 111 80 13 -11 11 -15 -13 -30z m-597 -11 c-31 -44 -53 -93 -66 -146 -7 -29 -14 -51 -17 -49 -14 14 41 162 75 200 22 24 27 21 8 -5z m658 -61 c14 -23 28 -61 32 -84 l7 -43 -117 0 c-64 0 -116 2 -116 5 0 16 151 175 161 169 5 -3 20 -24 33 -47z m-598 15 c16 -15 54 -53 84 -85 l54 -57 -123 0 -124 0 7 43 c7 42 50 127 65 127 4 0 21 -13 37 -28z m644 -47 c0 -5 -5 -3 -10 5 -5 8 -10 20 -10 25 0 6 5 3 10 -5 5 -8 10 -19 10 -25z m-308 -71 c23 -23 28 -36 28 -74 0 -38 -5 -51 -28 -73 -54 -52 -134 -41 -167 23 -57 110 77 210 167 124z m-194 -84 c-2 -30 -12 -38 -23 -20 -4 6 -57 9 -131 7 -121 -2 -124 -2 -124 20 0 21 3 21 140 22 l140 0 -2 -29z m522 9 c0 -17 -7 -19 -63 -19 -35 0 -98 -3 -140 -6 -73 -7 -77 -6 -77 14 0 11 6 23 13 25 6 3 69 5 140 6 119 0 127 -1 127 -20z m-803 -61 c-3 -8 -6 -5 -6 6 -1 11 2 17 5 13 3 -3 4 -12 1 -19z m769 -30 c-7 -40 -53 -138 -65 -138 -4 0 -44 38 -91 85 l-84 84 105 4 c57 1 112 4 123 5 16 2 18 -3 12 -40z m-576 -53 c-47 -47 -88 -85 -93 -85 -12 0 -67 121 -67 148 0 22 2 22 122 22 l123 0 -85 -85z m129 51 c17 -20 -187 -210 -207 -194 -11 10 5 31 85 110 54 53 101 98 104 98 4 0 12 -6 18 -14z m186 4 c4 -6 12 -7 18 -4 7 4 9 4 6 0 -4 -4 33 -44 81 -89 48 -45 88 -85 89 -88 0 -4 -6 -10 -15 -13 -16 -6 -51 22 -151 122 -29 28 -53 59 -53 67 0 17 16 20 25 5z m-83 -170 c3 -128 1 -140 -14 -140 -12 0 -18 8 -19 23 -9 214 -6 257 17 257 10 0 14 -32 16 -140z m-70 -3 l-3 -115 -55 14 c-52 14 -124 50 -124 62 0 12 175 170 180 162 3 -4 4 -60 2 -123z m196 42 c46 -44 82 -82 80 -83 -29 -25 -95 -56 -131 -61 l-47 -7 0 116 c0 64 3 116 8 116 4 0 45 -36 90 -81z" fill="#e76d57"/>
</g>
</svg>