<svg id="splitsvg" version="1.1" xmlns="http://www.w3.org/2000/svg" xmlns:xlink="http://www.w3.org/1999/xlink" width="1380" height="225"><g id="svgg"><path id="path0" d="M196.637 9.013 C 188.055 11.840,184.606 21.643,189.399 29.584 C 190.370 31.192,190.999 31.892,191.896 32.358 C 192.268 32.551,192.926 32.992,193.360 33.338 C 196.929 36.189,204.407 36.223,208.470 33.408 C 209.909 32.410,213.286 28.963,213.979 27.784 L 214.631 26.674 214.631 21.947 C 214.631 16.202,214.679 16.335,211.491 13.168 C 206.933 8.640,201.976 7.254,196.637 9.013 M135.945 32.866 C 131.651 33.593,127.115 37.294,124.789 41.969 L 123.467 44.627 123.467 47.468 L 123.467 50.310 124.338 51.998 C 127.454 58.031,136.043 62.453,140.379 60.256 C 143.541 58.654,147.456 55.491,148.320 53.842 C 148.494 53.509,149.015 52.729,149.477 52.110 C 152.553 47.986,152.160 43.237,148.347 38.447 C 147.848 37.820,147.440 37.223,147.440 37.121 C 147.440 36.813,144.046 34.396,142.688 33.737 C 140.654 32.749,138.375 32.455,135.945 32.866 M263.253 35.374 C 251.297 37.344,246.948 50.738,255.506 59.231 C 259.053 62.750,261.769 63.731,266.557 63.219 C 271.768 62.662,278.128 55.550,278.402 49.972 C 278.781 42.267,270.404 34.196,263.253 35.374 M201.297 39.341 C 200.119 40.250,199.088 44.896,199.887 45.695 C 201.650 47.457,203.859 44.857,203.140 41.868 C 202.389 38.749,202.272 38.589,201.297 39.341 M194.373 48.862 C 192.887 48.958,191.394 49.142,191.055 49.272 C 190.715 49.402,189.449 49.666,188.241 49.859 C 187.033 50.052,185.639 50.351,185.144 50.524 C 184.648 50.697,183.230 51.158,181.992 51.548 C 179.848 52.224,179.352 52.415,177.265 53.370 C 176.770 53.596,175.909 53.941,175.352 54.136 C 174.795 54.332,173.953 54.746,173.481 55.057 C 173.010 55.369,171.845 56.039,170.893 56.546 C 169.941 57.053,168.720 57.782,168.181 58.166 C 167.642 58.549,166.718 59.167,166.129 59.539 C 165.540 59.910,164.512 60.681,163.845 61.253 C 163.179 61.824,162.197 62.563,161.663 62.896 C 160.398 63.684,155.352 68.735,154.383 70.183 C 153.969 70.802,152.870 72.223,151.941 73.339 C 147.700 78.440,142.897 87.980,141.491 94.097 C 141.307 94.899,141.002 96.162,140.813 96.905 C 139.556 101.855,139.423 103.072,139.369 110.186 C 139.331 115.215,139.583 118.969,140.095 120.991 C 140.282 121.733,140.606 123.050,140.813 123.917 C 142.424 130.645,142.822 131.738,145.854 137.760 C 148.307 142.633,149.548 144.614,151.892 147.403 C 152.793 148.476,154.008 149.946,154.593 150.671 C 156.359 152.860,159.635 156.214,160.861 157.086 C 161.495 157.537,162.930 158.666,164.049 159.595 C 167.085 162.113,168.907 163.237,174.451 166.009 C 177.900 167.734,178.729 168.093,181.936 169.250 C 183.585 169.846,186.790 170.793,187.732 170.964 C 188.165 171.042,188.995 171.258,189.576 171.442 C 190.157 171.627,192.588 171.933,194.978 172.123 C 197.369 172.313,199.882 172.520,200.563 172.584 C 201.244 172.648,202.459 172.591,203.264 172.458 C 204.069 172.325,206.263 172.112,208.140 171.985 C 210.017 171.858,211.840 171.643,212.191 171.508 C 212.543 171.373,213.489 171.130,214.294 170.970 C 215.821 170.665,218.399 169.909,221.272 168.924 C 223.010 168.328,230.720 164.606,232.534 163.488 C 235.199 161.845,237.542 160.125,239.392 158.455 C 240.506 157.448,241.780 156.392,242.222 156.107 C 243.277 155.426,245.043 153.649,245.702 152.605 C 245.991 152.148,247.203 150.730,248.396 149.454 C 249.588 148.178,250.725 146.825,250.920 146.446 C 251.116 146.067,251.804 145.098,252.450 144.291 C 254.746 141.422,258.559 133.752,259.838 129.432 C 261.005 125.487,261.352 123.957,261.579 121.738 C 261.708 120.484,261.960 118.895,262.139 118.207 C 262.526 116.723,262.587 106.774,262.220 105.121 C 262.097 104.564,261.894 103.146,261.770 101.970 C 261.281 97.329,260.277 92.967,258.867 89.364 C 258.649 88.807,258.400 88.047,258.314 87.676 C 258.019 86.398,254.934 80.469,253.337 78.109 C 252.457 76.809,251.398 75.239,250.983 74.620 C 249.069 71.765,238.865 61.503,236.050 59.601 C 229.216 54.985,227.292 53.963,222.285 52.285 C 216.842 50.460,215.965 50.212,213.780 49.879 C 212.639 49.705,211.423 49.454,211.078 49.320 C 209.639 48.761,200.015 48.497,194.373 48.862 M206.753 54.973 C 207.124 55.170,207.681 55.604,207.991 55.938 C 209.678 57.756,213.395 58.452,214.025 57.068 C 214.312 56.439,215.194 56.274,215.194 56.849 C 215.194 57.252,216.745 58.748,217.164 58.750 C 217.578 58.751,217.506 57.842,217.051 57.328 C 215.662 55.757,224.767 59.069,227.489 61.125 C 227.876 61.417,228.990 62.080,229.965 62.599 C 230.941 63.118,232.331 63.984,233.056 64.523 C 233.780 65.062,234.474 65.504,234.599 65.504 C 235.274 65.504,240.027 69.974,242.018 72.482 C 242.460 73.039,243.442 74.710,244.200 76.196 C 245.230 78.214,246.009 79.381,247.283 80.810 C 248.221 81.863,249.143 83.014,249.331 83.370 C 249.520 83.725,250.003 84.485,250.406 85.058 C 252.319 87.781,255.226 95.056,255.905 98.818 C 256.028 99.499,256.241 100.351,256.378 100.711 C 257.124 102.664,257.180 112.923,256.464 116.263 C 256.278 117.130,256.035 118.741,255.923 119.843 C 255.670 122.346,255.611 122.537,254.677 123.917 C 254.180 124.652,253.834 125.510,253.682 126.393 C 253.343 128.350,252.639 130.581,251.550 133.146 C 251.024 134.384,250.314 136.086,249.971 136.929 C 249.628 137.771,248.975 139.037,248.520 139.742 C 248.065 140.447,247.222 141.885,246.648 142.938 C 246.074 143.990,245.083 145.459,244.446 146.201 C 243.809 146.944,243.047 147.926,242.752 148.383 C 242.458 148.841,241.669 149.600,241.000 150.072 C 240.331 150.543,238.991 151.616,238.023 152.457 C 237.055 153.298,235.499 154.406,234.564 154.921 C 233.629 155.435,232.409 156.176,231.851 156.567 C 230.693 157.379,226.552 159.411,225.211 159.825 C 224.716 159.978,224.057 160.239,223.748 160.405 C 221.706 161.499,216.673 163.087,212.043 164.097 C 210.990 164.326,209.826 164.631,209.454 164.773 C 209.083 164.915,207.006 165.116,204.840 165.220 C 202.673 165.324,200.578 165.510,200.185 165.633 C 199.754 165.768,199.127 165.781,198.609 165.665 C 198.136 165.559,196.307 165.365,194.543 165.233 C 192.780 165.101,190.907 164.855,190.379 164.686 C 189.852 164.517,188.357 164.050,187.057 163.648 C 185.757 163.246,184.068 162.676,183.304 162.381 C 182.540 162.087,181.819 161.846,181.700 161.846 C 180.922 161.846,170.738 156.682,169.274 155.545 C 168.841 155.208,168.030 154.650,167.473 154.304 C 166.916 153.959,165.903 153.207,165.222 152.633 C 164.541 152.059,163.579 151.295,163.084 150.934 C 161.748 149.963,158.699 146.967,158.336 146.270 C 158.163 145.937,157.504 145.043,156.873 144.285 C 155.801 142.996,153.909 140.275,153.339 139.201 C 153.201 138.942,152.989 138.113,152.867 137.359 C 152.735 136.536,152.246 135.197,151.642 134.005 C 151.090 132.913,150.030 130.829,149.287 129.374 C 147.946 126.749,146.313 122.198,146.314 121.088 C 146.314 120.770,146.163 120.001,145.978 119.379 C 144.931 115.853,144.919 103.488,145.959 100.506 C 146.132 100.011,146.337 98.948,146.415 98.143 C 146.543 96.811,147.353 93.692,147.935 92.290 C 148.063 91.981,148.348 91.109,148.567 90.352 C 148.915 89.151,150.785 85.205,152.732 81.562 C 153.073 80.923,153.899 79.773,154.567 79.007 C 155.235 78.242,155.970 77.245,156.201 76.793 C 156.679 75.856,160.766 71.806,161.233 71.806 C 161.403 71.806,162.294 71.253,163.213 70.577 C 166.506 68.155,167.159 67.708,168.880 66.704 C 170.795 65.587,170.783 65.604,170.259 64.857 C 169.635 63.966,170.679 62.952,174.227 61.001 C 177.371 59.273,178.413 59.013,182.667 58.892 C 186.717 58.778,187.171 58.689,191.559 57.149 C 192.877 56.686,193.728 56.229,194.294 55.677 C 195.430 54.571,195.971 54.484,201.351 54.554 C 205.153 54.603,206.210 54.685,206.753 54.973 M147.830 58.054 C 146.682 59.418,146.803 60.086,148.395 61.170 C 148.922 61.529,150.400 62.563,151.679 63.468 C 154.171 65.230,155.434 65.649,156.300 64.999 C 156.981 64.488,156.120 63.160,153.574 60.796 C 149.795 57.286,148.854 56.837,147.830 58.054 M200.237 58.357 C 199.269 59.208,199.212 60.255,199.212 77.240 C 199.212 95.787,198.964 94.091,201.674 94.091 C 204.522 94.091,205.146 93.347,204.530 90.681 C 204.073 88.705,203.967 86.171,203.815 73.639 C 203.651 60.036,203.322 57.850,201.441 57.850 C 201.095 57.850,200.554 58.078,200.237 58.357 M248.947 60.274 C 245.395 62.407,244.707 64.203,247.065 65.189 C 248.972 65.986,251.885 63.599,251.885 61.239 C 251.885 59.496,250.824 59.147,248.947 60.274 M163.768 72.287 C 162.288 74.046,163.565 75.769,174.498 86.775 C 183.276 95.613,184.226 96.501,186.494 97.995 C 187.925 98.937,188.324 99.082,188.581 98.749 C 189.114 98.057,189.025 97.693,187.999 96.377 C 187.419 95.633,186.672 94.586,186.339 94.051 C 186.006 93.516,184.935 92.217,183.960 91.165 C 182.984 90.113,181.914 88.847,181.580 88.352 C 180.825 87.230,169.133 75.228,166.750 73.128 C 164.750 71.366,164.583 71.319,163.768 72.287 M236.128 74.269 C 233.853 75.446,214.022 94.872,213.277 96.654 C 212.357 98.857,213.457 100.888,215.184 100.173 C 216.052 99.813,223.274 92.428,224.282 90.869 C 225.258 89.360,231.771 82.448,235.862 78.580 C 238.717 75.882,239.055 75.483,239.055 74.818 C 239.055 73.472,238.038 73.281,236.128 74.269 M198.537 96.954 C 193.283 97.887,188.265 102.850,187.481 107.887 C 186.539 113.935,189.893 120.384,195.384 123.085 L 197.074 123.917 200.571 123.917 L 204.067 123.917 206.535 122.717 C 213.145 119.503,215.803 113.703,213.876 106.697 C 212.058 100.089,205.246 95.762,198.537 96.954 M287.045 97.018 C 282.201 98.045,278.775 101.540,278.108 106.134 C 277.946 107.248,277.693 108.632,277.546 109.210 C 276.917 111.671,277.926 116.152,279.702 118.795 C 280.390 119.817,281.037 120.653,281.142 120.653 C 281.247 120.653,281.835 121.050,282.449 121.535 C 284.643 123.270,288.427 124.709,290.773 124.701 C 295.076 124.688,301.143 120.481,303.367 115.970 L 304.221 114.237 304.221 110.523 L 304.221 106.809 303.405 105.121 C 300.361 98.822,293.817 95.581,287.045 97.018 M106.584 98.789 C 94.189 102.980,93.781 118.643,105.909 124.704 L 108.385 125.942 110.974 125.934 L 113.562 125.927 115.954 124.782 C 118.819 123.410,121.047 121.402,122.157 119.190 C 125.456 112.616,124.267 104.078,119.640 101.117 C 115.226 98.293,110.529 97.456,106.584 98.789 M151.379 108.713 C 149.204 108.967,148.161 110.014,148.589 111.509 C 149.096 113.277,148.461 113.209,165.447 113.301 C 175.123 113.353,179.959 113.458,180.416 113.626 C 180.788 113.763,181.479 114.017,181.953 114.190 C 183.817 114.874,184.560 114.155,184.741 111.488 C 184.845 109.955,184.803 109.665,184.403 109.173 L 183.945 108.610 168.337 108.582 C 159.753 108.567,152.122 108.626,151.379 108.713 M223.513 108.706 C 219.557 108.862,218.229 109.507,217.773 111.495 C 217.215 113.930,221.270 115.006,226.465 113.802 C 227.566 113.546,230.644 113.406,239.059 113.229 C 250.877 112.979,252.277 112.833,253.509 111.718 C 254.697 110.642,253.385 109.010,251.096 108.715 C 249.412 108.498,228.962 108.492,223.513 108.706 M126.956 108.882 C 125.777 109.315,125.567 110.144,126.317 111.397 C 127.272 112.992,127.318 113.018,128.380 112.535 C 129.159 112.182,129.867 112.108,132.527 112.104 C 136.563 112.098,137.740 111.301,136.041 109.727 C 135.089 108.844,128.680 108.248,126.956 108.882 M266.193 109.022 C 265.417 109.590,265.443 111.448,266.240 112.339 C 267.682 113.954,273.945 113.301,273.945 111.536 C 273.945 110.410,267.259 108.242,266.193 109.022 M187.282 122.473 C 185.288 123.658,164.423 145.010,163.910 146.391 C 163.641 147.115,163.478 147.798,163.547 147.911 C 163.973 148.599,166.495 147.401,169.128 145.259 C 169.766 144.740,170.996 143.829,171.863 143.234 C 174.983 141.091,188.239 127.587,189.189 125.584 C 190.080 123.704,190.052 123.068,189.047 122.364 C 188.385 121.900,188.230 121.910,187.282 122.473 M213.091 122.415 C 211.860 123.774,213.584 126.067,222.491 134.918 C 226.587 138.988,230.343 142.584,230.838 142.908 C 231.334 143.233,232.600 144.248,233.652 145.163 C 236.626 147.751,238.467 148.432,239.504 147.328 C 240.318 146.461,240.235 146.365,229.450 135.622 C 223.982 130.174,219.239 125.297,218.912 124.784 C 218.432 124.032,218.118 123.800,217.301 123.595 C 216.743 123.454,215.754 123.039,215.103 122.671 C 213.715 121.888,213.583 121.871,213.091 122.415 M201.438 127.754 C 200.800 128.089,200.440 128.812,200.208 130.219 C 200.126 130.715,199.919 131.673,199.748 132.349 C 199.360 133.883,199.312 146.595,199.689 148.002 C 199.822 148.497,200.007 151.640,200.102 154.985 C 200.242 159.964,200.340 161.198,200.645 161.788 C 201.342 163.134,202.534 163.326,203.354 162.223 C 204.013 161.336,204.099 134.742,203.452 132.020 C 203.246 131.154,202.962 129.870,202.821 129.168 C 202.509 127.614,202.236 127.335,201.438 127.754 M153.405 156.195 C 150.671 157.914,148.717 160.896,149.539 162.093 C 150.854 164.007,152.085 164.015,153.043 162.118 C 153.719 160.779,154.666 159.799,155.960 159.099 C 156.928 158.575,156.853 158.140,155.575 156.861 C 154.335 155.621,154.323 155.617,153.405 156.195 M246.394 156.574 C 245.908 157.841,246.386 158.749,248.774 161.104 C 251.431 163.725,252.812 164.145,254.025 162.703 C 254.893 161.672,254.304 160.916,251.548 159.528 C 251.176 159.341,250.619 158.911,250.310 158.573 C 248.573 156.678,246.718 155.731,246.394 156.574 M133.974 159.824 C 127.336 161.208,122.109 170.316,124.224 176.815 C 126.549 183.961,130.342 186.739,138.136 187.001 L 141.551 187.116 143.059 186.411 C 144.673 185.655,147.845 182.821,148.507 181.542 C 148.699 181.171,149.183 180.461,149.581 179.966 C 151.039 178.155,151.604 176.426,151.604 173.776 L 151.604 171.412 150.369 168.936 C 148.590 165.369,145.954 162.735,142.375 160.947 L 139.899 159.710 137.423 159.666 C 136.061 159.641,134.509 159.713,133.974 159.824 M261.555 161.824 C 260.537 162.050,259.411 162.488,258.741 162.918 C 258.128 163.313,257.240 163.846,256.769 164.102 C 255.922 164.563,253.207 167.180,252.220 168.486 C 250.649 170.565,249.988 176.905,251.070 179.516 C 254.684 188.240,261.955 191.426,269.668 187.665 C 275.018 185.056,277.707 180.413,277.499 174.139 C 277.365 170.087,276.895 169.096,273.602 165.924 C 269.570 162.041,266.025 160.834,261.555 161.824 M201.263 177.299 C 200.858 177.949,200.491 178.960,200.339 179.847 C 200.200 180.655,199.934 181.843,199.749 182.487 C 198.769 185.891,201.856 187.318,203.461 184.202 C 204.027 183.102,203.777 178.961,203.063 177.611 C 202.227 176.029,202.070 176.002,201.263 177.299 M195.385 188.619 C 191.818 189.342,188.005 194.248,187.465 198.810 C 186.668 205.553,189.336 210.361,195.520 213.326 L 198.199 214.611 201.125 214.621 L 204.052 214.631 206.524 213.394 C 209.959 211.674,211.674 209.959,213.394 206.524 L 214.631 204.052 214.631 200.563 L 214.631 197.074 213.436 194.710 C 211.197 190.284,209.264 188.983,204.398 188.627 C 201.152 188.390,196.538 188.385,195.385 188.619  M -25 0 L -5 0 L -5 20 L -25 20 Z M 405 0 L 425 0 L 425 20 L 405 20 Z" stroke="none" fill="#04a4ec" fill-rule="evenodd" transform="translate(30,0)"></path><path id="path1" d="M199.104 0.153 C 198.487 0.209,197.930 0.326,197.866 0.414 C 197.802 0.502,196.939 0.766,195.948 1.002 C 194.958 1.237,194.044 1.506,193.917 1.600 C 193.790 1.695,193.182 1.939,192.566 2.144 C 188.503 3.493,184.300 6.875,182.922 9.904 C 182.725 10.338,182.467 10.844,182.348 11.030 C 181.969 11.623,181.065 13.809,180.767 14.856 C 180.608 15.414,180.393 16.072,180.290 16.320 C 179.142 19.073,179.150 24.602,180.305 27.349 C 180.409 27.597,180.668 28.382,180.880 29.094 C 181.092 29.806,181.353 30.388,181.460 30.388 C 181.567 30.388,181.654 30.500,181.654 30.636 C 181.654 31.491,185.198 36.149,187.711 38.596 C 188.341 39.210,188.858 39.847,188.858 40.010 C 188.858 40.173,189.010 40.365,189.195 40.436 C 190.036 40.759,188.995 41.476,187.282 41.755 C 186.725 41.845,186.161 42.006,186.028 42.113 C 185.896 42.219,185.086 42.469,184.229 42.667 C 183.372 42.866,182.569 43.111,182.444 43.211 C 182.319 43.312,181.458 43.573,180.529 43.791 C 179.600 44.010,178.731 44.273,178.596 44.376 C 178.462 44.479,177.905 44.718,177.358 44.907 C 176.261 45.286,175.330 45.696,173.720 46.507 C 173.132 46.803,172.537 47.046,172.399 47.046 C 172.077 47.046,167.246 49.466,166.798 49.851 C 166.612 50.011,166.005 50.357,165.447 50.620 C 164.890 50.883,163.382 51.655,162.095 52.336 C 159.320 53.804,159.145 53.832,159.145 52.799 C 159.145 52.373,159.043 51.962,158.920 51.885 C 158.783 51.801,158.694 50.124,158.694 47.610 C 158.694 43.649,158.394 41.004,157.820 39.902 C 157.706 39.683,157.484 39.049,157.327 38.492 C 156.688 36.223,150.963 29.038,149.795 29.038 C 149.626 29.038,149.407 28.906,149.308 28.745 C 148.820 27.950,145.195 26.197,143.127 25.755 C 142.218 25.561,141.241 25.289,140.957 25.150 C 140.284 24.822,136.135 24.823,135.464 25.151 C 135.179 25.291,134.177 25.567,133.237 25.765 C 131.743 26.081,130.896 26.445,127.383 28.281 C 125.001 29.526,119.360 35.569,118.271 38.042 C 118.189 38.227,117.935 38.785,117.706 39.282 C 116.413 42.079,116.292 50.434,117.504 53.236 C 117.611 53.483,117.766 53.939,117.849 54.249 C 119.593 60.754,127.653 67.969,133.189 67.978 C 133.584 67.979,133.960 68.066,134.026 68.172 C 134.166 68.400,136.191 68.611,140.775 68.878 C 144.716 69.107,145.055 69.264,144.177 70.453 C 143.867 70.874,143.613 71.351,143.613 71.512 C 143.613 71.674,143.509 71.806,143.382 71.806 C 143.255 71.806,143.050 72.073,142.926 72.399 C 142.803 72.724,142.513 73.256,142.283 73.580 C 142.053 73.905,141.553 74.748,141.171 75.454 C 140.790 76.161,140.379 76.920,140.259 77.142 C 140.036 77.553,139.069 79.695,138.551 80.923 C 138.394 81.294,138.009 82.155,137.694 82.836 C 137.379 83.517,137.003 84.521,136.860 85.067 C 136.716 85.613,136.463 86.271,136.297 86.530 C 136.132 86.789,135.881 87.456,135.740 88.014 C 135.598 88.571,135.344 89.330,135.175 89.702 C 135.006 90.073,134.742 90.884,134.589 91.503 C 134.435 92.122,134.186 92.831,134.034 93.078 C 133.882 93.326,133.648 94.173,133.515 94.960 C 133.381 95.748,133.169 96.516,133.043 96.668 C 132.917 96.820,132.693 97.721,132.545 98.669 L 132.277 100.394 131.554 100.394 C 131.040 100.394,130.425 100.085,129.422 99.325 C 128.646 98.737,127.856 98.154,127.667 98.030 C 127.477 97.907,126.217 96.829,124.866 95.637 C 122.335 93.401,118.508 91.174,116.601 90.825 C 116.168 90.746,115.509 90.544,115.138 90.377 C 113.593 89.682,107.848 89.753,106.519 90.483 C 106.307 90.600,105.550 90.855,104.837 91.050 C 103.729 91.352,101.902 92.205,99.700 93.446 C 99.401 93.615,99.075 93.880,98.976 94.035 C 98.877 94.190,98.688 94.316,98.557 94.316 C 97.532 94.316,92.575 99.599,92.060 101.239 C 91.914 101.703,91.608 102.487,91.380 102.983 C 91.137 103.508,90.899 104.726,90.807 105.909 C 90.720 107.023,90.539 108.006,90.404 108.093 C 89.964 108.377,89.919 114.695,90.352 115.356 C 90.551 115.661,90.715 116.287,90.715 116.748 C 90.715 118.831,92.136 122.428,93.930 124.884 C 95.042 126.406,96.144 127.631,96.402 127.631 C 96.530 127.631,96.979 127.985,97.399 128.419 C 97.820 128.852,98.217 129.207,98.281 129.207 C 98.346 129.207,98.731 129.460,99.138 129.771 C 101.488 131.563,105.870 133.245,108.216 133.254 C 108.742 133.257,109.173 133.360,109.173 133.483 C 109.173 133.760,112.922 133.791,113.092 133.516 C 113.157 133.411,113.905 133.260,114.753 133.181 C 116.679 133.002,117.604 132.719,119.977 131.580 C 122.984 130.137,124.202 129.108,129.019 123.944 C 130.575 122.275,132.437 121.821,132.699 123.045 C 132.775 123.401,132.969 123.945,133.130 124.254 C 133.291 124.564,133.484 125.515,133.560 126.368 C 133.636 127.220,133.852 128.154,134.042 128.443 C 134.231 128.732,134.497 129.503,134.632 130.157 C 134.768 130.810,135.006 131.548,135.162 131.795 C 135.318 132.043,135.608 132.802,135.807 133.483 C 136.007 134.164,136.376 135.123,136.627 135.613 C 136.879 136.104,137.085 136.674,137.085 136.880 C 137.085 137.086,137.237 137.381,137.423 137.535 C 137.608 137.689,137.761 138.031,137.763 138.294 C 137.764 138.558,138.018 139.214,138.326 139.753 C 138.634 140.292,138.886 140.832,138.886 140.954 C 138.886 141.300,141.545 146.527,142.043 147.160 C 142.287 147.471,142.487 147.840,142.487 147.979 C 142.487 148.119,143.095 148.907,143.838 149.730 C 145.904 152.020,145.560 153.441,143.221 152.275 C 142.115 151.723,137.874 151.424,135.105 151.702 C 132.388 151.976,128.985 153.398,126.924 155.120 C 126.350 155.600,125.791 155.993,125.683 155.993 C 125.453 155.993,120.428 160.990,120.428 161.218 C 120.428 161.303,119.921 162.041,119.302 162.859 C 118.683 163.677,118.177 164.443,118.177 164.561 C 118.177 164.680,117.981 165.206,117.742 165.731 C 116.378 168.729,116.242 175.946,117.495 178.841 C 117.602 179.088,117.749 179.632,117.820 180.049 C 118.010 181.150,119.881 184.943,120.945 186.382 C 122.492 188.474,125.708 191.465,127.124 192.127 C 127.588 192.345,128.222 192.689,128.531 192.893 C 128.841 193.097,129.651 193.446,130.332 193.669 C 131.013 193.891,131.773 194.157,132.020 194.260 C 134.243 195.185,142.758 195.183,143.950 194.258 C 144.074 194.162,144.809 193.907,145.582 193.692 C 146.356 193.476,146.989 193.237,146.989 193.160 C 146.989 193.083,147.310 192.877,147.703 192.703 C 149.172 192.053,154.916 186.085,156.131 183.946 C 156.365 183.535,156.830 182.725,157.166 182.145 C 158.102 180.528,158.463 179.645,158.602 178.638 C 158.672 178.130,158.823 177.513,158.938 177.265 C 159.052 177.017,159.171 174.800,159.202 172.337 C 159.273 166.581,159.358 166.503,162.925 168.932 C 163.929 169.615,164.800 170.174,164.862 170.174 C 164.924 170.174,165.420 170.475,165.965 170.843 C 167.075 171.592,171.770 173.959,173.326 174.554 C 173.883 174.767,174.440 175.021,174.564 175.117 C 174.688 175.214,175.194 175.421,175.689 175.577 C 176.185 175.732,176.843 175.995,177.153 176.160 C 177.462 176.325,178.219 176.623,178.835 176.821 C 179.451 177.019,180.059 177.265,180.186 177.368 C 180.313 177.470,181.075 177.733,181.880 177.951 C 182.684 178.170,183.445 178.426,183.570 178.521 C 183.695 178.616,184.498 178.856,185.355 179.055 C 186.212 179.253,187.021 179.504,187.154 179.611 C 187.342 179.764,190.151 180.304,190.758 180.304 C 191.549 180.304,189.669 182.660,187.732 184.096 C 186.900 184.713,184.581 186.985,184.581 187.184 C 184.581 187.249,184.176 187.838,183.680 188.494 C 183.185 189.150,182.780 189.804,182.780 189.947 C 182.780 190.091,182.690 190.208,182.581 190.208 C 182.472 190.208,182.326 190.385,182.258 190.602 C 182.190 190.819,181.934 191.351,181.690 191.784 C 181.044 192.933,180.529 194.165,180.529 194.562 C 180.529 194.753,180.436 194.966,180.321 195.037 C 179.208 195.725,179.177 203.343,180.279 205.457 C 180.392 205.674,180.615 206.308,180.774 206.866 C 181.043 207.812,181.529 208.909,182.269 210.242 C 182.441 210.551,182.783 211.235,183.029 211.761 C 183.275 212.288,183.573 212.718,183.691 212.718 C 183.809 212.718,183.905 212.830,183.905 212.968 C 183.905 213.271,185.849 215.729,186.811 216.643 C 187.194 217.007,187.507 217.441,187.507 217.607 C 187.507 217.774,187.684 217.983,187.901 218.071 C 188.118 218.160,188.903 218.708,189.645 219.289 C 191.113 220.437,193.025 221.506,194.401 221.950 C 194.881 222.104,195.415 222.344,195.589 222.483 C 196.034 222.838,205.328 222.831,205.762 222.476 C 205.935 222.333,206.533 222.095,207.091 221.947 C 207.648 221.800,208.638 221.435,209.292 221.138 C 209.946 220.840,210.519 220.597,210.567 220.597 C 210.827 220.597,213.100 218.943,214.079 218.042 C 214.704 217.466,215.306 216.995,215.418 216.995 C 215.529 216.995,215.752 216.755,215.913 216.461 C 216.075 216.167,216.688 215.332,217.276 214.604 C 217.864 213.876,218.345 213.154,218.345 212.999 C 218.345 212.845,218.432 212.718,218.537 212.718 C 218.776 212.718,220.023 210.210,220.383 209.004 C 220.531 208.509,220.758 207.901,220.888 207.653 C 222.033 205.470,221.992 194.454,220.836 193.585 C 220.754 193.523,220.516 192.932,220.307 192.272 C 220.097 191.613,219.723 190.787,219.474 190.437 C 219.225 190.087,219.021 189.710,219.021 189.599 C 219.021 189.489,218.540 188.755,217.952 187.970 C 217.364 187.184,216.781 186.387,216.657 186.198 C 216.254 185.582,213.212 182.555,212.997 182.555 C 212.582 182.555,212.043 181.718,212.043 181.072 C 212.043 180.344,213.385 179.578,215.757 178.954 C 216.376 178.792,216.984 178.585,217.107 178.495 C 217.231 178.406,217.940 178.163,218.683 177.955 C 219.426 177.747,220.338 177.440,220.709 177.271 C 221.080 177.103,221.790 176.894,222.285 176.808 C 222.780 176.722,223.388 176.526,223.635 176.371 C 223.883 176.217,224.693 175.920,225.436 175.711 C 226.179 175.503,227.091 175.190,227.462 175.016 C 229.069 174.264,230.677 173.585,231.514 173.304 C 232.009 173.138,232.928 172.682,233.557 172.291 C 234.185 171.901,235.147 171.368,235.695 171.108 C 236.243 170.848,236.894 170.508,237.141 170.352 C 237.389 170.195,238.115 169.737,238.755 169.333 C 239.395 168.929,239.994 168.599,240.087 168.599 C 240.179 168.599,240.415 168.447,240.611 168.262 C 242.219 166.745,243.106 166.420,243.106 167.347 C 243.106 167.650,243.208 167.960,243.331 168.036 C 243.455 168.113,243.557 168.974,243.557 169.949 C 243.557 170.925,243.455 171.786,243.331 171.863 C 243.198 171.945,243.106 173.361,243.106 175.352 C 243.106 177.342,243.198 178.758,243.331 178.841 C 243.455 178.917,243.557 179.411,243.557 179.939 C 243.557 181.781,244.794 184.976,246.357 187.169 C 246.797 187.787,247.158 188.420,247.158 188.574 C 247.158 188.988,252.206 194.035,252.620 194.035 C 252.814 194.035,253.007 194.126,253.048 194.237 C 253.136 194.474,256.675 196.286,257.049 196.286 C 257.189 196.286,257.574 196.463,257.904 196.680 C 258.410 197.011,259.172 197.086,262.725 197.151 C 267.896 197.245,269.117 197.022,272.032 195.449 C 272.403 195.249,273.040 194.908,273.448 194.692 C 275.702 193.496,281.498 187.880,282.198 186.213 C 282.366 185.810,282.605 185.481,282.727 185.481 C 282.849 185.481,282.949 185.328,282.949 185.141 C 282.949 184.954,283.150 184.372,283.395 183.847 C 284.880 180.671,285.009 171.907,283.622 168.486 C 283.521 168.239,283.273 167.479,283.070 166.798 C 282.669 165.454,281.812 163.579,281.544 163.460 C 281.452 163.419,281.205 163.014,280.995 162.559 C 279.825 160.027,274.507 155.954,271.244 155.092 C 270.687 154.944,270.129 154.747,270.006 154.654 C 269.502 154.275,266.876 153.938,263.413 153.809 C 261.397 153.734,259.694 153.587,259.630 153.482 C 259.565 153.378,259.280 153.292,258.996 153.292 C 256.954 153.292,256.591 152.247,257.948 150.275 C 258.327 149.723,258.638 149.163,258.638 149.031 C 258.638 148.898,258.742 148.790,258.869 148.790 C 258.996 148.790,259.188 148.562,259.296 148.284 C 259.405 148.005,259.758 147.391,260.082 146.919 C 260.405 146.446,260.822 145.737,261.009 145.343 C 261.195 144.948,261.514 144.322,261.717 143.950 C 262.507 142.509,262.439 142.648,263.863 139.561 C 264.234 138.756,264.629 137.946,264.741 137.760 C 264.852 137.575,264.999 137.271,265.067 137.085 C 265.134 136.899,265.375 136.342,265.601 135.847 C 265.828 135.352,266.185 134.440,266.396 133.821 C 266.607 133.202,266.916 132.392,267.083 132.020 C 267.250 131.649,267.511 130.838,267.662 130.219 C 267.813 129.600,268.026 128.979,268.134 128.837 C 268.243 128.696,268.488 127.685,268.679 126.589 C 268.870 125.494,269.114 124.492,269.220 124.364 C 269.327 124.236,269.485 123.576,269.571 122.898 C 269.766 121.368,270.060 120.730,270.409 121.079 C 270.546 121.216,270.819 121.328,271.014 121.328 C 271.402 121.328,273.945 123.785,273.945 124.160 C 273.945 124.421,277.568 128.032,278.202 128.402 C 278.429 128.535,279.160 129.001,279.825 129.438 C 280.491 129.875,281.491 130.417,282.048 130.643 C 282.606 130.869,283.239 131.146,283.457 131.259 C 284.184 131.635,286.650 132.126,287.831 132.129 C 288.474 132.131,289.062 132.234,289.139 132.358 C 289.216 132.482,289.975 132.583,290.827 132.583 C 291.679 132.583,292.439 132.482,292.515 132.358 C 292.592 132.234,293.130 132.132,293.711 132.130 C 295.450 132.126,297.887 131.167,299.760 129.749 C 300.154 129.451,300.545 129.207,300.628 129.207 C 300.711 129.207,300.979 128.953,301.222 128.644 C 301.465 128.334,301.785 128.081,301.933 128.081 C 302.281 128.081,307.935 122.418,307.935 122.069 C 307.935 121.923,308.112 121.670,308.329 121.507 C 309.009 120.994,310.393 118.361,310.404 117.558 C 310.408 117.279,310.495 117.051,310.597 117.051 C 311.529 117.051,311.575 107.090,310.654 105.008 C 310.544 104.761,310.292 103.855,310.093 102.995 C 309.894 102.135,309.656 101.375,309.565 101.306 C 309.473 101.238,309.234 100.723,309.033 100.163 C 308.833 99.603,308.276 98.552,307.795 97.827 C 307.315 97.103,306.805 96.308,306.662 96.061 C 306.262 95.369,303.819 92.966,303.515 92.966 C 303.367 92.966,303.211 92.890,303.170 92.797 C 302.939 92.276,298.641 89.817,297.956 89.813 C 297.811 89.812,297.413 89.666,297.071 89.487 C 295.415 88.623,288.034 88.434,286.283 89.210 C 285.873 89.392,285.031 89.672,284.412 89.833 C 283.420 90.090,281.237 91.103,279.576 92.075 C 278.028 92.981,276.196 94.591,273.694 97.242 C 270.294 100.846,270.093 100.889,269.646 98.117 C 269.520 97.335,269.323 96.581,269.207 96.442 C 269.091 96.302,268.844 95.384,268.658 94.401 C 268.471 93.417,268.116 92.215,267.868 91.729 C 267.620 91.242,267.417 90.708,267.417 90.540 C 267.417 90.373,267.166 89.688,266.860 89.018 C 266.554 88.348,266.235 87.519,266.151 87.175 C 266.068 86.832,265.862 86.351,265.695 86.106 C 265.528 85.862,265.391 85.521,265.391 85.349 C 265.391 85.177,264.885 83.985,264.266 82.702 C 263.647 81.419,263.140 80.308,263.140 80.234 C 263.140 80.045,261.285 76.362,260.709 75.408 C 260.448 74.975,260.024 74.215,259.767 73.720 C 259.510 73.225,259.058 72.414,258.762 71.919 C 257.962 70.579,258.272 69.553,259.212 70.430 C 260.167 71.321,267.737 71.342,269.781 70.460 C 270.028 70.353,270.838 70.089,271.581 69.874 C 272.324 69.659,273.084 69.362,273.270 69.215 C 273.455 69.068,274.063 68.707,274.620 68.414 C 276.926 67.201,280.451 63.768,282.000 61.227 C 282.848 59.835,284.524 56.378,284.524 56.020 C 284.524 55.830,284.594 55.605,284.679 55.520 C 285.845 54.354,285.991 45.826,284.886 43.378 C 284.707 42.981,284.492 42.403,284.408 42.093 C 283.867 40.088,280.477 34.818,279.079 33.808 C 278.855 33.647,278.672 33.365,278.672 33.182 C 278.672 33.000,278.495 32.782,278.278 32.699 C 278.061 32.616,277.215 31.986,276.397 31.299 C 274.312 29.548,271.943 28.413,269.507 27.996 C 268.419 27.810,267.354 27.563,267.139 27.448 C 266.638 27.178,263.432 27.172,263.266 27.440 C 263.197 27.551,262.508 27.710,261.734 27.793 C 259.401 28.042,258.364 28.421,254.616 30.397 C 251.364 32.111,245.813 37.833,245.014 40.293 C 244.793 40.974,244.524 41.733,244.416 41.981 C 244.110 42.682,243.777 44.731,243.646 46.708 C 243.581 47.698,243.439 48.711,243.330 48.959 C 243.222 49.207,243.097 50.337,243.052 51.471 C 242.934 54.439,242.666 54.685,240.886 53.461 C 240.256 53.028,239.694 52.673,239.637 52.673 C 239.580 52.673,238.888 52.243,238.100 51.716 C 237.312 51.190,236.419 50.611,236.116 50.430 C 234.316 49.353,225.615 45.020,225.251 45.020 C 225.175 45.020,224.577 44.776,223.923 44.479 C 223.270 44.181,222.279 43.817,221.722 43.669 C 221.165 43.521,220.608 43.324,220.484 43.230 C 220.360 43.137,219.347 42.884,218.233 42.668 C 217.119 42.452,216.106 42.195,215.982 42.097 C 215.858 41.999,215.224 41.847,214.574 41.760 C 213.923 41.672,213.169 41.421,212.898 41.201 L 212.405 40.802 213.743 39.396 C 214.479 38.623,215.505 37.697,216.023 37.340 C 216.541 36.983,217.029 36.488,217.108 36.240 C 217.186 35.993,217.390 35.791,217.561 35.791 C 217.731 35.791,218.003 35.552,218.164 35.259 C 218.326 34.967,218.833 34.182,219.292 33.515 C 219.750 32.848,220.244 31.795,220.389 31.176 C 220.533 30.557,220.783 29.796,220.944 29.484 C 222.043 27.348,221.967 17.031,220.831 14.294 C 219.929 12.120,218.733 10.028,217.582 8.611 C 216.826 7.681,216.075 6.680,215.913 6.386 C 215.752 6.093,215.492 5.853,215.337 5.853 C 215.181 5.853,214.756 5.540,214.392 5.158 C 212.760 3.445,209.608 1.655,207.091 1.014 C 206.286 0.809,205.457 0.551,205.250 0.441 C 204.799 0.203,200.689 0.010,199.104 0.153 M203.936 8.572 C 206.373 9.134,209.099 10.792,211.491 13.168 C 214.679 16.335,214.631 16.202,214.631 21.947 L 214.631 26.674 213.979 27.784 C 213.286 28.963,209.909 32.410,208.470 33.408 C 204.407 36.223,196.929 36.189,193.360 33.338 C 192.926 32.992,192.268 32.551,191.896 32.358 C 188.714 30.704,186.578 24.261,187.485 19.053 C 188.695 12.105,196.815 6.932,203.936 8.572 M140.115 32.882 C 142.150 33.258,147.440 36.319,147.440 37.121 C 147.440 37.223,147.848 37.820,148.347 38.447 C 152.160 43.237,152.553 47.986,149.477 52.110 C 149.015 52.729,148.494 53.509,148.320 53.842 C 147.456 55.491,143.541 58.654,140.379 60.256 C 136.043 62.453,127.454 58.031,124.338 51.998 L 123.467 50.310 123.467 47.468 L 123.467 44.627 124.789 41.969 C 127.977 35.562,134.308 31.808,140.115 32.882 M268.092 35.948 C 273.978 37.713,278.690 44.123,278.402 49.972 C 278.128 55.550,271.768 62.662,266.557 63.219 C 255.744 64.374,247.746 52.983,252.396 43.048 C 255.092 37.287,262.055 34.137,268.092 35.948 M202.558 39.674 C 203.883 43.898,203.330 46.129,200.957 46.142 C 199.356 46.150,199.114 44.912,200.115 41.822 C 201.005 39.074,202.075 38.133,202.558 39.674 M206.576 48.852 C 208.708 48.976,210.734 49.186,211.078 49.320 C 211.423 49.454,212.639 49.705,213.780 49.879 C 215.965 50.212,216.842 50.460,222.285 52.285 C 227.292 53.963,229.216 54.985,236.050 59.601 C 238.865 61.503,249.069 71.765,250.983 74.620 C 251.398 75.239,252.457 76.809,253.337 78.109 C 254.934 80.469,258.019 86.398,258.314 87.676 C 258.400 88.047,258.649 88.807,258.867 89.364 C 260.277 92.967,261.281 97.329,261.770 101.970 C 261.894 103.146,262.097 104.564,262.220 105.121 C 262.587 106.774,262.526 116.723,262.139 118.207 C 261.960 118.895,261.708 120.484,261.579 121.738 C 261.352 123.957,261.005 125.487,259.838 129.432 C 258.559 133.752,254.746 141.422,252.450 144.291 C 251.804 145.098,251.116 146.067,250.920 146.446 C 250.725 146.825,249.588 148.178,248.396 149.454 C 247.203 150.730,245.991 152.148,245.702 152.605 C 245.043 153.649,243.277 155.426,242.222 156.107 C 241.780 156.392,240.506 157.448,239.392 158.455 C 237.542 160.125,235.199 161.845,232.534 163.488 C 230.720 164.606,223.010 168.328,221.272 168.924 C 218.399 169.909,215.821 170.665,214.294 170.970 C 213.489 171.130,212.543 171.373,212.191 171.508 C 211.840 171.643,210.017 171.858,208.140 171.985 C 206.263 172.112,204.069 172.325,203.264 172.458 C 202.459 172.591,201.244 172.648,200.563 172.584 C 199.882 172.520,197.369 172.313,194.978 172.123 C 192.588 171.933,190.157 171.627,189.576 171.442 C 188.995 171.258,188.165 171.042,187.732 170.964 C 186.790 170.793,183.585 169.846,181.936 169.250 C 178.729 168.093,177.900 167.734,174.451 166.009 C 168.907 163.237,167.085 162.113,164.049 159.595 C 162.930 158.666,161.495 157.537,160.861 157.086 C 159.635 156.214,156.359 152.860,154.593 150.671 C 154.008 149.946,152.793 148.476,151.892 147.403 C 149.548 144.614,148.307 142.633,145.854 137.760 C 142.822 131.738,142.424 130.645,140.813 123.917 C 140.606 123.050,140.282 121.733,140.095 120.991 C 139.583 118.969,139.331 115.215,139.369 110.186 C 139.423 103.072,139.556 101.855,140.813 96.905 C 141.002 96.162,141.307 94.899,141.491 94.097 C 142.897 87.980,147.700 78.440,151.941 73.339 C 152.870 72.223,153.969 70.802,154.383 70.183 C 155.352 68.735,160.398 63.684,161.663 62.896 C 162.197 62.563,163.179 61.824,163.845 61.253 C 164.512 60.681,165.540 59.910,166.129 59.539 C 166.718 59.167,167.642 58.549,168.181 58.166 C 168.720 57.782,169.941 57.053,170.893 56.546 C 171.845 56.039,173.010 55.369,173.481 55.057 C 173.953 54.746,174.795 54.332,175.352 54.136 C 175.909 53.941,176.770 53.596,177.265 53.370 C 179.352 52.415,179.848 52.224,181.992 51.548 C 183.230 51.158,184.648 50.697,185.144 50.524 C 185.639 50.351,187.033 50.052,188.241 49.859 C 189.449 49.666,190.715 49.402,191.055 49.272 C 192.491 48.722,200.560 48.504,206.576 48.852 M195.870 54.685 C 195.455 54.790,194.746 55.237,194.294 55.677 C 193.728 56.229,192.877 56.686,191.559 57.149 C 187.171 58.689,186.717 58.778,182.667 58.892 C 178.413 59.013,177.371 59.273,174.227 61.001 C 170.679 62.952,169.635 63.966,170.259 64.857 C 170.783 65.604,170.795 65.587,168.880 66.704 C 167.159 67.708,166.506 68.155,163.213 70.577 C 162.294 71.253,161.403 71.806,161.233 71.806 C 160.766 71.806,156.679 75.856,156.201 76.793 C 155.970 77.245,155.235 78.242,154.567 79.007 C 153.899 79.773,153.073 80.923,152.732 81.562 C 150.785 85.205,148.915 89.151,148.567 90.352 C 148.348 91.109,148.063 91.981,147.935 92.290 C 147.353 93.692,146.543 96.811,146.415 98.143 C 146.337 98.948,146.132 100.011,145.959 100.506 C 144.919 103.488,144.931 115.853,145.978 119.379 C 146.163 120.001,146.314 120.770,146.314 121.088 C 146.313 122.198,147.946 126.749,149.287 129.374 C 150.030 130.829,151.090 132.913,151.642 134.005 C 152.246 135.197,152.735 136.536,152.867 137.359 C 152.989 138.113,153.201 138.942,153.339 139.201 C 153.909 140.275,155.801 142.996,156.873 144.285 C 157.504 145.043,158.163 145.937,158.336 146.270 C 158.699 146.967,161.748 149.963,163.084 150.934 C 163.579 151.295,164.541 152.059,165.222 152.633 C 165.903 153.207,166.916 153.959,167.473 154.304 C 168.030 154.650,168.841 155.208,169.274 155.545 C 170.738 156.682,180.922 161.846,181.700 161.846 C 181.819 161.846,182.540 162.087,183.304 162.381 C 184.068 162.676,185.757 163.246,187.057 163.648 C 188.357 164.050,189.852 164.517,190.379 164.686 C 190.907 164.855,192.780 165.101,194.543 165.233 C 196.307 165.365,198.136 165.559,198.609 165.665 C 199.127 165.781,199.754 165.768,200.185 165.633 C 200.578 165.510,202.673 165.324,204.840 165.220 C 207.006 165.116,209.083 164.915,209.454 164.773 C 209.826 164.631,210.990 164.326,212.043 164.097 C 216.673 163.087,221.706 161.499,223.748 160.405 C 224.057 160.239,224.716 159.978,225.211 159.825 C 226.552 159.411,230.693 157.379,231.851 156.567 C 232.409 156.176,233.629 155.435,234.564 154.921 C 235.499 154.406,237.055 153.298,238.023 152.457 C 238.991 151.616,240.331 150.543,241.000 150.072 C 241.669 149.600,242.458 148.841,242.752 148.383 C 243.047 147.926,243.809 146.944,244.446 146.201 C 245.083 145.459,246.074 143.990,246.648 142.938 C 247.222 141.885,248.065 140.447,248.520 139.742 C 248.975 139.037,249.628 137.771,249.971 136.929 C 250.314 136.086,251.024 134.384,251.550 133.146 C 252.639 130.581,253.343 128.350,253.682 126.393 C 253.834 125.510,254.180 124.652,254.677 123.917 C 255.611 122.537,255.670 122.346,255.923 119.843 C 256.035 118.741,256.278 117.130,256.464 116.263 C 257.180 112.923,257.124 102.664,256.378 100.711 C 256.241 100.351,256.028 99.499,255.905 98.818 C 255.226 95.056,252.319 87.781,250.406 85.058 C 250.003 84.485,249.520 83.725,249.331 83.370 C 249.143 83.014,248.221 81.863,247.283 80.810 C 246.009 79.381,245.230 78.214,244.200 76.196 C 243.442 74.710,242.460 73.039,242.018 72.482 C 240.027 69.974,235.274 65.504,234.599 65.504 C 234.474 65.504,233.780 65.062,233.056 64.523 C 232.331 63.984,230.941 63.118,229.965 62.599 C 228.990 62.080,227.876 61.417,227.489 61.125 C 224.767 59.069,215.662 55.757,217.051 57.328 C 217.506 57.842,217.578 58.751,217.164 58.750 C 216.745 58.748,215.194 57.252,215.194 56.849 C 215.194 56.274,214.312 56.439,214.025 57.068 C 213.395 58.452,209.678 57.756,207.991 55.938 C 206.842 54.699,206.461 54.620,201.351 54.554 C 198.751 54.520,196.284 54.579,195.870 54.685 M150.585 58.191 C 152.197 59.336,155.798 62.880,156.250 63.765 C 157.382 65.985,155.019 65.831,151.679 63.468 C 150.400 62.563,148.922 61.529,148.395 61.170 C 146.803 60.086,146.682 59.418,147.830 58.054 C 148.520 57.233,149.291 57.272,150.585 58.191 M202.428 58.247 C 203.424 59.348,203.676 62.141,203.815 73.639 C 203.967 86.171,204.073 88.705,204.530 90.681 C 205.146 93.347,204.522 94.091,201.674 94.091 C 198.964 94.091,199.212 95.787,199.212 77.240 C 199.212 60.255,199.269 59.208,200.237 58.357 C 200.927 57.750,201.933 57.700,202.428 58.247 M251.615 59.921 C 252.525 60.831,251.449 63.551,249.694 64.778 C 247.703 66.170,244.904 64.773,245.916 62.893 C 246.948 60.977,250.709 59.015,251.615 59.921 M190.912 67.417 C 191.286 71.599,191.126 85.763,190.705 85.763 C 190.239 85.763,179.865 75.491,179.596 74.763 C 179.498 74.499,179.263 74.282,179.073 74.282 C 178.883 74.282,178.728 74.175,178.728 74.045 C 178.728 73.914,178.432 73.534,178.069 73.201 C 176.394 71.660,176.516 71.531,182.105 68.958 C 182.786 68.645,183.596 68.259,183.905 68.101 C 184.215 67.942,184.873 67.688,185.369 67.536 C 185.864 67.384,186.674 67.074,187.169 66.846 C 187.665 66.619,188.450 66.365,188.914 66.281 C 189.378 66.197,189.758 66.032,189.758 65.913 C 189.758 65.795,189.986 65.730,190.264 65.769 C 190.718 65.834,190.786 66.005,190.912 67.417 M212.493 65.909 C 212.493 66.008,213.253 66.278,214.181 66.509 C 215.110 66.740,215.869 67.001,215.869 67.087 C 215.869 67.174,216.503 67.421,217.276 67.637 C 218.050 67.852,218.787 68.112,218.914 68.214 C 219.041 68.317,219.648 68.565,220.264 68.766 C 221.434 69.147,221.699 69.258,224.367 70.486 C 226.376 71.411,226.407 71.637,224.761 73.363 C 224.080 74.077,223.523 74.778,223.523 74.922 C 223.523 75.065,223.414 75.183,223.282 75.183 C 222.970 75.183,222.397 75.756,222.397 76.067 C 222.397 76.200,222.252 76.308,222.075 76.308 C 221.897 76.308,221.686 76.517,221.605 76.771 C 221.525 77.026,221.214 77.328,220.915 77.441 C 220.616 77.555,220.371 77.805,220.371 77.997 C 220.371 78.188,220.118 78.442,219.809 78.559 C 219.499 78.677,219.246 78.892,219.246 79.038 C 219.246 79.362,216.986 81.580,216.443 81.788 C 216.228 81.870,215.999 82.140,215.934 82.387 C 215.870 82.634,215.699 82.836,215.555 82.836 C 215.411 82.836,214.641 83.495,213.844 84.299 C 211.995 86.164,212.043 86.188,212.043 83.399 C 212.043 82.099,211.958 81.035,211.854 81.035 C 211.648 81.035,211.298 66.248,211.497 65.927 C 211.650 65.679,212.493 65.664,212.493 65.909 M166.750 73.128 C 169.133 75.228,180.825 87.230,181.580 88.352 C 181.914 88.847,182.984 90.113,183.960 91.165 C 184.935 92.217,186.006 93.516,186.339 94.051 C 186.672 94.586,187.419 95.633,187.999 96.377 C 189.828 98.724,188.982 99.634,186.494 97.995 C 184.226 96.501,183.276 95.613,174.498 86.775 C 163.565 75.769,162.288 74.046,163.768 72.287 C 164.583 71.319,164.750 71.366,166.750 73.128 M238.619 73.840 C 239.790 74.467,239.273 75.356,235.862 78.580 C 231.771 82.448,225.258 89.360,224.282 90.869 C 223.274 92.428,216.052 99.813,215.184 100.173 C 213.457 100.888,212.357 98.857,213.277 96.654 C 213.488 96.150,216.257 93.185,220.762 88.640 C 234.071 75.213,236.862 72.900,238.619 73.840 M241.624 86.862 C 242.068 87.467,242.431 88.026,242.431 88.104 C 242.431 88.183,242.684 88.649,242.994 89.139 C 243.303 89.630,243.724 90.463,243.929 90.992 C 244.134 91.520,244.420 92.105,244.564 92.290 C 244.709 92.476,244.960 93.084,245.121 93.641 C 245.283 94.198,245.566 94.997,245.750 95.417 C 245.934 95.837,246.184 96.850,246.307 97.668 C 246.430 98.486,246.624 99.337,246.739 99.559 C 247.156 100.363,246.794 100.394,237.072 100.390 C 226.915 100.387,226.665 100.362,227.158 99.425 C 227.796 98.214,239.996 85.763,240.545 85.763 C 240.695 85.763,241.180 86.257,241.624 86.862 M164.812 88.633 C 166.800 90.578,174.687 98.477,176.020 99.858 C 176.432 100.284,174.417 100.387,165.616 100.390 C 155.892 100.394,155.768 100.388,155.768 99.940 C 155.768 99.428,156.391 96.916,156.688 96.230 C 156.796 95.982,157.047 95.273,157.246 94.654 C 157.899 92.628,159.910 88.453,161.176 86.494 C 161.698 85.687,161.958 85.840,164.812 88.633 M203.710 97.036 C 208.551 98.151,212.578 101.978,213.876 106.697 C 215.803 113.703,213.145 119.503,206.535 122.717 L 204.067 123.917 200.571 123.917 L 197.074 123.917 195.384 123.085 C 191.008 120.933,187.779 116.152,187.370 111.223 C 186.650 102.544,195.242 95.085,203.710 97.036 M295.779 97.571 C 298.657 98.783,301.886 101.980,303.405 105.121 L 304.221 106.809 304.221 110.523 L 304.221 114.237 303.367 115.970 C 301.143 120.481,295.076 124.688,290.773 124.701 C 288.427 124.709,284.643 123.270,282.449 121.535 C 281.835 121.050,281.247 120.653,281.142 120.653 C 281.037 120.653,280.390 119.817,279.702 118.795 C 277.926 116.152,276.917 111.671,277.546 109.210 C 277.693 108.632,277.946 107.248,278.108 106.134 C 278.997 100.006,283.646 96.713,291.165 96.884 C 294.001 96.948,294.463 97.017,295.779 97.571 M114.229 98.697 C 121.401 100.775,124.292 104.755,123.967 112.100 C 123.693 118.275,121.155 122.292,115.954 124.782 L 113.562 125.927 110.974 125.934 L 108.385 125.942 105.909 124.704 C 93.781 118.643,94.189 102.980,106.584 98.789 C 109.048 97.956,111.569 97.926,114.229 98.697 M184.403 109.173 C 184.803 109.665,184.845 109.955,184.741 111.488 C 184.560 114.155,183.817 114.874,181.953 114.190 C 181.479 114.017,180.788 113.763,180.416 113.626 C 179.959 113.458,175.123 113.353,165.447 113.301 C 157.586 113.258,150.850 113.171,150.478 113.107 C 148.412 112.749,147.807 110.264,149.524 109.187 C 150.426 108.621,152.511 108.554,168.337 108.582 L 183.945 108.610 184.403 109.173 M251.096 108.715 C 253.385 109.010,254.697 110.642,253.509 111.718 C 252.277 112.833,250.877 112.979,239.059 113.229 C 230.644 113.406,227.566 113.546,226.465 113.802 C 224.316 114.300,219.780 114.327,218.884 113.846 C 217.111 112.896,217.455 110.613,219.573 109.260 C 220.596 108.606,246.744 108.154,251.096 108.715 M134.635 108.951 C 136.338 109.424,137.094 110.740,136.185 111.649 C 135.777 112.056,135.430 112.100,132.527 112.104 C 129.867 112.108,129.159 112.182,128.380 112.535 C 127.318 113.018,127.272 112.992,126.317 111.397 C 125.567 110.144,125.777 109.315,126.956 108.882 C 127.555 108.662,133.795 108.718,134.635 108.951 M269.860 109.378 C 272.110 110.136,273.945 111.105,273.945 111.536 C 273.945 112.153,272.626 112.963,271.361 113.121 C 267.310 113.627,265.453 112.756,265.674 110.453 C 265.859 108.527,266.694 108.312,269.860 109.378 M246.480 122.172 C 246.478 122.996,246.023 124.815,245.594 125.718 C 245.476 125.965,245.232 126.624,245.050 127.181 C 244.869 127.738,244.560 128.497,244.365 128.869 C 244.169 129.240,244.009 129.628,244.008 129.731 C 244.006 130.083,241.322 135.441,241.025 135.687 C 240.853 135.830,240.599 135.854,240.423 135.746 C 239.458 135.149,226.664 122.336,226.723 122.026 C 226.785 121.707,227.660 121.652,234.330 121.549 C 238.476 121.484,242.907 121.408,244.176 121.380 L 246.483 121.328 246.480 122.172 M175.577 122.290 C 175.577 122.531,166.872 131.305,163.034 134.931 C 161.643 136.247,161.344 136.136,160.346 133.939 C 160.036 133.255,159.497 132.088,159.149 131.345 C 158.801 130.602,158.392 129.640,158.239 129.207 C 158.085 128.773,157.771 128.007,157.539 127.503 C 157.308 127.000,157.119 126.509,157.119 126.412 C 157.119 126.315,156.977 125.917,156.803 125.526 C 155.842 123.365,155.769 122.454,156.556 122.454 C 156.866 122.454,157.119 122.352,157.119 122.228 C 157.119 122.082,160.345 122.003,166.348 122.003 C 173.668 122.003,175.577 122.063,175.577 122.290 M189.047 122.364 C 190.052 123.068,190.080 123.704,189.189 125.584 C 188.239 127.587,174.983 141.091,171.863 143.234 C 170.996 143.829,169.766 144.740,169.128 145.259 C 166.495 147.401,163.973 148.599,163.547 147.911 C 162.863 146.804,164.005 145.470,175.446 134.009 C 187.673 121.760,187.903 121.563,189.047 122.364 M215.103 122.671 C 215.754 123.039,216.743 123.454,217.301 123.595 C 218.118 123.800,218.432 124.032,218.912 124.784 C 219.239 125.297,223.982 130.174,229.450 135.622 C 240.235 146.365,240.318 146.461,239.504 147.328 C 238.467 148.432,236.626 147.751,233.652 145.163 C 232.600 144.248,231.334 143.233,230.838 142.908 C 226.902 140.328,212.718 124.948,212.718 123.260 C 212.718 122.004,213.555 121.798,215.103 122.671 M202.821 129.168 C 202.962 129.870,203.246 131.154,203.452 132.020 C 204.099 134.742,204.013 161.336,203.354 162.223 C 202.534 163.326,201.342 163.134,200.645 161.788 C 200.340 161.198,200.242 159.964,200.102 154.985 C 200.007 151.640,199.822 148.497,199.689 148.002 C 199.312 146.595,199.360 133.883,199.748 132.349 C 199.919 131.673,200.126 130.715,200.208 130.219 C 200.702 127.219,202.300 126.576,202.821 129.168 M191.216 147.340 L 191.057 156.357 189.789 156.119 C 189.091 155.988,188.419 155.816,188.295 155.737 C 188.171 155.658,187.411 155.414,186.607 155.195 C 185.802 154.976,185.042 154.725,184.918 154.637 C 184.795 154.548,184.288 154.349,183.793 154.193 C 183.298 154.037,182.639 153.781,182.330 153.625 C 182.020 153.469,181.311 153.155,180.754 152.929 C 180.197 152.702,179.690 152.463,179.629 152.397 C 179.567 152.331,179.111 152.140,178.616 151.974 C 177.417 151.571,176.027 150.659,176.027 150.277 C 176.027 149.861,183.692 142.413,186.494 140.106 C 186.866 139.800,188.081 138.754,189.195 137.780 L 191.221 136.010 191.298 137.166 C 191.340 137.803,191.303 142.381,191.216 147.340 M219.083 142.957 C 226.306 150.031,226.769 150.614,225.436 150.949 C 225.127 151.026,224.873 151.170,224.873 151.267 C 224.873 151.497,221.201 153.292,220.731 153.292 C 220.533 153.292,220.371 153.375,220.371 153.476 C 220.371 153.577,219.789 153.842,219.077 154.064 C 218.365 154.286,217.681 154.549,217.558 154.648 C 217.434 154.747,216.674 154.992,215.869 155.193 C 215.065 155.394,214.198 155.663,213.944 155.790 C 213.690 155.917,212.981 155.990,212.369 155.951 L 211.255 155.881 211.280 148.002 C 211.307 139.395,211.475 136.185,211.900 136.185 C 212.047 136.185,215.279 139.232,219.083 142.957 M155.575 156.861 C 156.853 158.140,156.928 158.575,155.960 159.099 C 154.666 159.799,153.719 160.779,153.043 162.118 C 152.248 163.694,151.898 163.875,150.832 163.265 C 148.609 161.992,148.675 160.748,151.096 158.283 C 153.883 155.445,154.092 155.378,155.575 156.861 M248.657 157.089 C 249.257 157.567,250.000 158.235,250.310 158.573 C 250.619 158.911,251.176 159.341,251.548 159.528 C 252.796 160.157,254.586 161.468,254.586 161.753 C 254.586 162.297,253.465 163.370,252.794 163.468 C 251.007 163.731,246.258 159.384,246.258 157.486 C 246.258 155.954,247.069 155.820,248.657 157.089 M142.375 160.947 C 145.954 162.735,148.590 165.369,150.369 168.936 L 151.604 171.412 151.604 173.776 C 151.604 176.426,151.039 178.155,149.581 179.966 C 149.183 180.461,148.699 181.171,148.507 181.542 C 147.845 182.821,144.673 185.655,143.059 186.411 L 141.551 187.116 138.136 187.001 C 130.342 186.739,126.549 183.961,124.224 176.815 C 122.398 171.202,125.370 164.467,131.160 161.098 C 133.392 159.800,134.228 159.609,137.423 159.666 L 139.899 159.710 142.375 160.947 M266.154 161.747 C 272.397 162.839,277.303 168.198,277.499 174.139 C 277.707 180.413,275.018 185.056,269.668 187.665 C 261.955 191.426,254.684 188.240,251.070 179.516 C 249.988 176.905,250.649 170.565,252.220 168.486 C 253.207 167.180,255.922 164.563,256.769 164.102 C 257.240 163.846,258.128 163.313,258.741 162.918 C 259.411 162.488,260.537 162.050,261.555 161.824 C 263.757 161.337,263.804 161.336,266.154 161.747 M203.063 177.611 C 203.777 178.961,204.027 183.102,203.461 184.202 C 201.856 187.318,198.769 185.891,199.749 182.487 C 199.934 181.843,200.200 180.655,200.339 179.847 C 200.600 178.329,201.726 176.152,202.173 176.301 C 202.305 176.345,202.706 176.935,203.063 177.611 M204.398 188.627 C 209.264 188.983,211.197 190.284,213.436 194.710 L 214.631 197.074 214.631 200.563 L 214.631 204.052 213.394 206.524 C 211.674 209.959,209.959 211.674,206.524 213.394 L 204.052 214.631 201.125 214.621 L 198.199 214.611 195.520 213.326 C 186.919 209.202,184.633 200.016,190.308 192.382 C 193.202 188.489,195.208 187.954,204.398 188.627  M -25 0 L -5 0 L -5 20 L -25 20 Z M 405 0 L 425 0 L 425 20 L 405 20 Z" stroke="none" fill="#fafafa" fill-rule="evenodd" transform="translate(490,0)"></path></g></svg>