{
  "accessors": [
    {
      "bufferView": 2,
      "componentType": 5126,
      "count": 65532,
      "max": [
        0.9963376522064209,
        1.021332025527954,
        0.9642365574836731
      ],
      "min": [
        -0.9963377118110657,
        -1.023664116859436,
        -1.031264305114746
      ],
      "type": "VEC3"
    },
    {
      "bufferView": 2,
      "byteOffset": 786384,
      "componentType": 5126,
      "count": 65532,
      "max": [
        0.9999886155128479,
        0.9999011754989624,
        0.9998936057090759
      ],
      "min": [
        -0.999987781047821,
        -0.9999828934669495,
        -0.999975323677063
      ],
      "type": "VEC3"
    },
    {
      "bufferView": 0,
      "componentType": 5125,
      "count": 361863,
      "type": "SCALAR"
    },
    {
      "bufferView": 2,
      "byteOffset": 1572768,
      "componentType": 5126,
      "count": 22990,
      "max": [
        0.99631267786026,
        1.0205804109573364,
        1.0348994731903076
      ],
      "min": [
        -0.9931303262710571,
        -1.0212838649749756,
        -0.9955871105194092
      ],
      "type": "VEC3"
    },
    {
      "bufferView": 2,
      "byteOffset": 1848648,
      "componentType": 5126,
      "count": 22990,
      "max": [
        0.9999204874038696,
        0.9996793270111084,
        0.9996932148933411
      ],
      "min": [
        -0.9994761347770691,
        -0.9998794198036194,
        -0.9969807267189026
      ],
      "type": "VEC3"
    },
    {
      "bufferView": 0,
      "byteOffset": 1447452,
      "componentType": 5125,
      "count": 87609,
      "type": "SCALAR"
    },
    {
      "bufferView": 2,
      "byteOffset": 2124528,
      "componentType": 5126,
      "count": 41665,
      "max": [
        1.2698544263839722,
        1.273600697517395,
        1.3049192428588867
      ],
      "min": [
        -1.234679937362671,
        -1.236164927482605,
        -1.300533413887024
      ],
      "type": "VEC3"
    },
    {
      "bufferView": 2,
      "byteOffset": 2624508,
      "componentType": 5126,
      "count": 41665,
      "max": [
        0.9998770356178284,
        0.9999949932098389,
        0.9999387264251709
      ],
      "min": [
        -0.9999671578407288,
        -0.9999918937683105,
        -0.9999851584434509
      ],
      "type": "VEC3"
    },
    {
      "bufferView": 1,
      "componentType": 5126,
      "count": 41665,
      "max": [
        1.0,
        0.47238200902938843
      ],
      "min": [
        0.0,
        0.0
      ],
      "type": "VEC2"
    },
    {
      "bufferView": 0,
      "byteOffset": 1797888,
      "componentType": 5125,
      "count": 245760,
      "type": "SCALAR"
    },
    {
      "bufferView": 3,
      "componentType": 5126,
      "count": 250,
      "max": [
        10.416666984558105
      ],
      "min": [
        0.0416666679084301
      ],
      "type": "SCALAR"
    },
    {
      "bufferView": 4,
      "componentType": 5126,
      "count": 250,
      "max": [
        0.706948459148407,
        0.7069485187530518,
        0.19244858622550964,
        1.0
      ],
      "min": [
        -0.7070891857147217,
        -0.7070891857147217,
        -0.7070891857147217,
        0.006691006012260914
      ],
      "type": "VEC4"
    },
    {
      "bufferView": 3,
      "byteOffset": 1000,
      "componentType": 5126,
      "count": 250,
      "max": [
        10.416666984558105
      ],
      "min": [
        0.0416666679084301
      ],
      "type": "SCALAR"
    },
    {
      "bufferView": 4,
      "byteOffset": 4000,
      "componentType": 5126,
      "count": 250,
      "max": [
        0.7069485187530518,
        0.706948459148407,
        0.19244858622550964,
        1.0
      ],
      "min": [
        -0.7070891857147217,
        -0.7070891857147217,
        -0.7070891857147217,
        0.006691190414130688
      ],
      "type": "VEC4"
    }
  ],
  "animations": [
    {
      "channels": [
        {
          "sampler": 0,
          "target": {
            "node": 3,
            "path": "rotation"
          }
        },
        {
          "sampler": 1,
          "target": {
            "node": 6,
            "path": "rotation"
          }
        }
      ],
      "name": "Animation",
      "samplers": [
        {
          "input": 10,
          "interpolation": "LINEAR",
          "output": 11
        },
        {
          "input": 12,
          "interpolation": "LINEAR",
          "output": 13
        }
      ]
    }
  ],
  "asset": {
    "extras": {
      "author": "tamminen (https://sketchfab.com/tamminen)",
      "license": "CC-BY-4.0 (http://creativecommons.org/licenses/by/4.0/)",
      "source": "https://sketchfab.com/3d-models/orb-morb-ae0cc50dc25a4fcab18906b9402b44b6",
      "title": "Orb morb"
    },
    "generator": "Sketchfab-16.8.0",
    "version": "2.0"
  },
  "bufferViews": [
    {
      "buffer": 0,
      "byteLength": 2780928,
      "name": "floatBufferViews",
      "target": 34963
    },
    {
      "buffer": 0,
      "byteLength": 333320,
      "byteOffset": 2780928,
      "byteStride": 8,
      "name": "floatBufferViews",
      "target": 34962
    },
    {
      "buffer": 0,
      "byteLength": 3124488,
      "byteOffset": 3114248,
      "byteStride": 12,
      "name": "floatBufferViews",
      "target": 34962
    },
    {
      "buffer": 0,
      "byteLength": 2000,
      "byteOffset": 6238736,
      "name": "floatBufferViews"
    },
    {
      "buffer": 0,
      "byteLength": 8000,
      "byteOffset": 6240736,
      "byteStride": 16,
      "name": "floatBufferViews"
    }
  ],
  "buffers": [
    {
      "byteLength": 6248736,
      "uri": "scene.bin"
    }
  ],
  "extensionsUsed": [
    "KHR_materials_specular",
    "KHR_materials_transmission"
  ],
  "materials": [
    {
      "doubleSided": true,
      "extensions": {
        "KHR_materials_specular": {
          "specularColorFactor": [
            1.0,
            1.0,
            1.0
          ],
          "specularFactor": 1.0
        }
      },
      "name": "base",
      "pbrMetallicRoughness": {
        "baseColorFactor": [
          0.3894175341030755,
          0.03721921108506272,
          0.13317143109042692,
          1.0
        ],
        "metallicFactor": 0.6750241747613076,
        "roughnessFactor": 0.0
      }
    },
    {
      "alphaMode": "BLEND",
      "doubleSided": true,
      "extensions": {
        "KHR_materials_specular": {
          "specularColorFactor": [
            1.0,
            1.0,
            1.0
          ],
          "specularFactor": 0.5048755377734246
        },
        "KHR_materials_transmission": {
          "transmissionFactor": 0.44651056594432303
        }
      },
      "name": "material",
      "pbrMetallicRoughness": {
        "baseColorFactor": [
          1.0,
          0.0,
          0.0,
          0.553489434055677
        ],
        "roughnessFactor": 0.061273734197872604
      }
    }
  ],
  "meshes": [
    {
      "name": "Object_0",
      "primitives": [
        {
          "attributes": {
            "NORMAL": 1,
            "POSITION": 0
          },
          "indices": 2,
          "material": 0,
          "mode": 4
        }
      ]
    },
    {
      "name": "Object_1",
      "primitives": [
        {
          "attributes": {
            "NORMAL": 4,
            "POSITION": 3
          },
          "indices": 5,
          "material": 0,
          "mode": 4
        }
      ]
    },
    {
      "name": "Object_2",
      "primitives": [
        {
          "attributes": {
            "NORMAL": 7,
            "POSITION": 6,
            "TEXCOORD_0": 8
          },
          "indices": 9,
          "material": 1,
          "mode": 4
        }
      ]
    }
  ],
  "nodes": [
    {
      "children": [
        1
      ],
      "matrix": [
        1.0,
        0.0,
        0.0,
        0.0,
        0.0,
        2.220446049250313e-16,
        -1.0,
        0.0,
        0.0,
        1.0,
        2.220446049250313e-16,
        0.0,
        0.0,
        0.0,
        0.0,
        1.0
      ],
      "name": "Sketchfab_model"
    },
    {
      "children": [
        2
      ],
      "name": "root"
    },
    {
      "children": [
        3,
        6
      ],
      "matrix": [
        1.0,
        0.0,
        0.0,
        0.0,
        0.0,
        2.220446049250313e-16,
        1.0,
        0.0,
        0.0,
        -1.0,
        2.220446049250313e-16,
        0.0,
        0.0,
        0.0,
        0.0,
        1.0
      ],
      "name": "GLTF_SceneRootNode"
    },
    {
      "children": [
        4,
        5
      ],
      "name": "Icosphere_0"
    },
    {
      "mesh": 0,
      "name": "Object_4"
    },
    {
      "mesh": 1,
      "name": "Object_5"
    },
    {
      "children": [
        7
      ],
      "name": "Icosphere.001_1"
    },
    {
      "mesh": 2,
      "name": "Object_7"
    }
  ],
  "scene": 0,
  "scenes": [
    {
      "name": "Sketchfab_Scene",
      "nodes": [
        0
      ]
    }
  ]
}
